<svg width="128" height="128" viewBox="0 0 128 128" fill="none" xmlns="http://www.w3.org/2000/svg">
<path d="M90.6514 80.8487C90.4156 80.2206 90.1798 79.5925 89.9803 78.9465C87.6404 71.2659 86.3164 54.7384 85.482 45.1735C83.5594 23.5316 76.0683 5.78373 64.4962 5.1377V4.99414C52.9241 5.62222 45.433 23.388 43.5104 45.012C42.6579 54.5948 41.3519 71.1044 39.0121 78.785C38.7944 79.431 38.5768 80.077 38.341 80.6872C2.31865 99.2605 55.7536 101.701 64.4962 101.827V101.97C73.2388 101.845 126.692 99.4041 90.6514 80.8307V80.8487Z" fill="#20223A"/>
<path d="M81.0382 109.37C84.1942 103.711 86.4796 95.7487 86.4796 91.2867C86.4796 90.1621 86.3708 89.0013 86.1894 87.8948C85.5546 84.0133 83.4324 81.3833 81.0744 81.4014C81.0563 81.4014 81.0382 81.4014 81.02 81.4014C78.6439 81.4014 76.5399 84.0133 75.9051 87.8948C75.7237 89.0194 75.6149 90.1621 75.6149 91.2867C75.6149 95.7487 77.9003 103.693 81.0563 109.37H81.0382Z" fill="#C11C79"/>
<path d="M81.0382 97.9615C82.7432 94.8961 83.9766 90.5793 83.9766 88.1669C83.9766 87.5502 83.9222 86.9335 83.8315 86.3349C83.4869 84.2309 82.3442 82.8161 81.0564 82.8161H81.0201C79.7323 82.8161 78.5896 84.2309 78.245 86.3349C78.1361 86.9335 78.0999 87.5683 78.0999 88.1669C78.0999 90.5793 79.3332 94.8961 81.0382 97.9615Z" fill="#FF438B"/>
<path d="M47.8272 110.223C50.9833 104.564 53.2687 96.6011 53.2687 92.1391C53.2687 91.0145 53.1598 89.8537 52.9785 88.7473C52.3436 84.8657 50.2215 82.2357 47.8635 82.2538C47.8454 82.2538 47.8272 82.2538 47.8091 82.2538C45.433 82.2538 43.329 84.8657 42.6941 88.7473C42.5128 89.8718 42.4039 91.0145 42.4039 92.1391C42.4039 96.6011 44.6893 104.546 47.8454 110.223H47.8272Z" fill="#C11C79"/>
<path d="M47.8273 97.9615C49.5323 94.8961 50.7657 90.5793 50.7657 88.1669C50.7657 87.5502 50.7113 86.9335 50.6025 86.3349C50.2578 84.2309 49.1151 82.8161 47.8273 82.8161C47.8273 82.8161 47.8092 82.8161 47.791 82.8161C46.5032 82.8161 45.3605 84.2309 45.0159 86.3349C44.9071 86.9335 44.8527 87.5683 44.8527 88.1669C44.8527 90.5793 46.0861 94.8961 47.791 97.9615H47.8273Z" fill="#FF438B"/>
<path d="M64.4237 125.731C69.4661 117.406 73.1119 105.743 73.1119 99.1949C73.1119 97.5262 72.9486 95.8394 72.6584 94.207C71.6246 88.5116 68.2509 84.6482 64.46 84.6663C64.4237 84.6663 64.4056 84.6663 64.3693 84.6663C60.5784 84.6482 57.2047 88.4934 56.1709 94.207C55.8807 95.8394 55.7174 97.5262 55.7174 99.1949C55.7174 105.743 59.3632 117.424 64.4056 125.731H64.4237Z" fill="#C11C79"/>
<path d="M64.4237 109.171C66.7092 105.525 68.3597 100.392 68.3597 97.5082C68.3597 96.7826 68.2872 96.039 68.1602 95.3134C67.6886 92.8104 66.165 91.1054 64.46 91.1235H64.4237C62.7188 91.1235 61.177 92.8104 60.7236 95.3134C60.5966 96.039 60.524 96.7826 60.524 97.5082C60.524 100.392 62.1746 105.507 64.46 109.171H64.4237Z" fill="#FF438B"/>
<path d="M64.5326 7.63356C53.8492 7.63356 47.646 30.0886 46.2131 46.5761C45.5964 53.7407 44.7076 66.6369 43.6193 72.55C42.9845 76.0688 40.8079 81.8367 40.6446 82.2901C30.9045 88.312 28.6372 91.0871 29.1995 91.7764C29.4534 92.0666 33.1717 91.3229 37.5067 90.416C40.8804 89.7086 44.6894 89.0194 47.1562 87.786C56.7876 82.9975 55.4091 72.9309 57.0597 72.8765C58.946 72.822 57.8215 75.9055 59.2181 79.2792C61.0863 83.8137 65.9836 88.8924 77.6102 87.1512C74.3816 84.3398 73.6923 72.9853 75.7238 72.9853C77.2474 72.9853 75.9777 78.9164 82.2898 84.9746C88.0759 90.543 99.9564 92.1936 100.047 91.7583C100.446 89.5635 92.03 85.1197 88.3298 82.3446C85.7723 76.3046 83.9041 50.4758 83.4688 46.4855C81.4373 27.8576 75.5968 7.61542 64.5507 7.61542L64.5326 7.63356Z" fill="#E8E8E8"/>
<path d="M64.5325 7.63362C75.5786 7.63362 81.4373 27.8758 83.4506 46.5037C83.8859 50.4759 85.7541 76.3228 88.3116 82.3628C92.0118 85.1379 100.41 89.5636 100.029 91.7765C100.029 91.8127 99.9019 91.849 99.6661 91.849C97.6165 91.849 87.4954 89.9989 82.2898 84.9928C75.9777 78.9165 77.2474 73.0035 75.7237 73.0035C73.6923 73.0035 74.3815 84.358 77.6101 87.1694C76.014 87.4052 74.5448 87.514 73.1844 87.514C64.6958 87.514 60.8323 83.1971 59.218 79.2793C57.8395 75.9237 58.9097 72.8765 57.0959 72.8765C57.0959 72.8765 57.0596 72.8765 57.0415 72.8765C55.3909 72.9309 56.7694 82.9976 47.138 87.7861C44.6713 89.0195 40.8804 89.6906 37.4886 90.4161C33.8246 91.196 30.5779 91.849 29.5259 91.849C29.3445 91.849 29.2176 91.8309 29.1813 91.7765C28.619 91.1053 30.8863 88.3121 40.6264 82.2902C40.8078 81.8186 42.9663 76.0688 43.6011 72.55C44.6713 66.637 45.56 53.7589 46.1949 46.5762C47.664 30.0705 53.8492 7.63362 64.5325 7.63362ZM64.5325 4.71338C50.6387 4.71338 44.6531 30.8686 43.3109 46.3223C43.1839 47.8459 43.0388 49.6053 42.8756 51.5098C42.2952 58.6199 41.5696 67.4895 40.7534 72.0059C40.3181 74.4001 38.994 78.2817 38.2504 80.3131C26.8052 87.4959 26.4424 89.7268 26.2429 90.9421C26.0797 91.9216 26.3336 92.8829 26.9503 93.6265C27.567 94.3702 28.4376 94.7511 29.544 94.7511C30.6505 94.7511 32.7545 94.3883 38.1052 93.2456L39.3749 92.9736C42.6035 92.3025 45.9591 91.6132 48.444 90.3617C53.1236 88.04 55.6086 84.6119 57.0415 81.5103C58.9278 85.2649 63.3354 90.398 73.1844 90.398C74.708 90.398 76.3404 90.271 78.0273 90.0171L83.0334 89.2734C89.1641 93.3182 97.5802 94.733 99.6661 94.733C102.387 94.733 102.858 92.502 102.913 92.248C103.53 88.7655 99.5029 86.1718 93.9163 82.5623C92.7555 81.8186 91.649 81.1112 90.7603 80.4764C88.9283 74.8536 87.3322 56.8243 86.7155 49.8411C86.5704 48.1361 86.4434 46.8301 86.3708 46.159C85.0105 33.7163 80.1676 4.71338 64.5325 4.71338Z" fill="#20223A"/>
<path d="M57.7125 43.5109C59.766 43.5109 61.4308 40.6118 61.4308 37.0356C61.4308 33.4593 59.766 30.5602 57.7125 30.5602C55.6589 30.5602 53.9941 33.4593 53.9941 37.0356C53.9941 40.6118 55.6589 43.5109 57.7125 43.5109Z" fill="#20223A"/>
<path d="M71.4611 43.5109C73.5147 43.5109 75.1794 40.6118 75.1794 37.0356C75.1794 33.4593 73.5147 30.5602 71.4611 30.5602C69.4075 30.5602 67.7428 33.4593 67.7428 37.0356C67.7428 40.6118 69.4075 43.5109 71.4611 43.5109Z" fill="#20223A"/>
<path opacity="0.2" d="M59.2362 72.2598C58.6013 75.1437 58.3837 77.4291 59.8347 80.5308C61.0862 82.8524 63.2265 85.1378 66.7091 86.4257C61.4309 81.1656 60.9049 78.2272 59.2543 72.2598H59.2362Z" fill="#2E3048"/>
<path opacity="0.2" d="M48.0086 87.2962C48.8793 84.3397 49.8224 78.4992 49.6955 75.3613C49.5322 76.4859 46.3399 83.0338 46.3399 83.0338C46.3399 83.0338 42.8755 86.9697 38.2322 90.2346C41.4245 89.5635 44.8526 88.8924 47.138 87.7678C47.4464 87.6227 47.7366 87.4595 48.0086 87.2962Z" fill="#2E3048"/>
<path opacity="0.2" d="M76.6849 71.0444C76.6849 73.2573 76.9389 77.5379 78.9885 80.8753C79.7684 82.1812 80.8204 83.5779 82.2715 84.9745C86.5702 89.11 94.2427 91.0871 97.9247 91.6494C84.7745 85.1378 80.6209 79.6601 76.6849 71.0444Z" fill="#2E3048"/>
<path d="M64.8226 50.1132C65.6741 50.1132 66.3644 49.2361 66.3644 48.1542C66.3644 47.0724 65.6741 46.1953 64.8226 46.1953C63.9711 46.1953 63.2809 47.0724 63.2809 48.1542C63.2809 49.2361 63.9711 50.1132 64.8226 50.1132Z" fill="#20223A"/>
<path d="M75.325 15.7854C72.4773 10.7247 68.904 7.51422 64.4963 7.51422C60.397 7.51422 52.7645 11.9944 48.2299 33.7606C53.6714 23.7844 58.206 11.9944 64.7865 12.7744C68.5231 12.7744 72.0419 13.8446 75.3069 15.7672L75.325 15.7854Z" fill="#C3C3C8"/>
</svg>
