<svg width="97" height="152" viewBox="0 0 97 152" fill="none" xmlns="http://www.w3.org/2000/svg">
    <path d="M80.955 95.3352C80.66 94.5487 80.365 93.7623 80.115 92.9533C77.185 83.3359 75.527 62.6403 74.482 50.6635C72.075 23.5638 62.695 1.34027 48.204 0.531329V0.351562C33.7138 1.13804 24.3336 23.384 21.9261 50.4612C20.8587 62.4606 19.2234 83.1336 16.2935 92.7511C16.021 93.56 15.7484 94.369 15.4532 95.133C-29.6534 118.39 37.2569 121.446 48.204 121.603V121.783C59.152 121.626 126.084 118.57 80.955 95.3127V95.3352Z" fill="#20223A"/>
    <path d="M68.918 131.05C72.87 123.963 75.731 113.993 75.731 108.405C75.731 106.997 75.595 105.544 75.368 104.158C74.573 99.2978 71.916 96.0045 68.963 96.0273C68.941 96.0273 68.918 96.0273 68.895 96.0273C65.92 96.0273 63.285 99.2978 62.49 104.158C62.263 105.566 62.127 106.997 62.127 108.405C62.127 113.993 64.989 123.941 68.941 131.05H68.918Z" fill="#C11C79"/>
    <path d="M68.918 116.763C71.053 112.925 72.597 107.52 72.597 104.499C72.597 103.727 72.529 102.954 72.415 102.205C71.984 99.5703 70.553 97.7987 68.94 97.7987H68.895C67.282 97.7987 65.852 99.5703 65.42 102.205C65.284 102.954 65.238 103.749 65.238 104.499C65.238 107.52 66.783 112.925 68.918 116.763Z" fill="#FF438B"/>
    <path d="M27.3318 132.117C31.2837 125.031 34.1455 115.06 34.1455 109.473C34.1455 108.065 34.0092 106.611 33.7821 105.226C32.9871 100.365 30.3298 97.072 27.3772 97.0947C27.3545 97.0947 27.3318 97.0947 27.3091 97.0947C24.3338 97.0947 21.6992 100.365 20.9042 105.226C20.6771 106.634 20.5408 108.065 20.5408 109.473C20.5408 115.06 23.4026 125.008 27.3545 132.117H27.3318Z" fill="#C11C79"/>
    <path d="M27.3318 116.763C29.4668 112.925 31.0112 107.52 31.0112 104.499C31.0112 103.727 30.943 102.954 30.8068 102.205C30.3752 99.5703 28.9444 97.7988 27.3318 97.7988C27.3318 97.7988 27.3091 97.7988 27.2864 97.7988C25.6738 97.7988 24.2429 99.5703 23.8114 102.205C23.6751 102.954 23.607 103.749 23.607 104.499C23.607 107.52 25.1514 112.925 27.2864 116.763H27.3318Z" fill="#FF438B"/>
    <path d="M48.113 151.536C54.427 141.111 58.993 126.507 58.993 118.308C58.993 116.219 58.788 114.106 58.425 112.062C57.13 104.931 52.906 100.093 48.159 100.116C48.113 100.116 48.091 100.116 48.045 100.116C43.298 100.093 39.074 104.908 37.7794 112.062C37.416 114.106 37.2115 116.219 37.2115 118.308C37.2115 126.507 41.777 141.134 48.091 151.536H48.113Z" fill="#C11C79"/>
    <path d="M48.113 130.8C50.975 126.235 53.042 119.807 53.042 116.196C53.042 115.287 52.951 114.356 52.792 113.448C52.202 110.313 50.294 108.178 48.159 108.201H48.113C45.979 108.201 44.048 110.313 43.48 113.448C43.321 114.356 43.23 115.287 43.23 116.196C43.23 119.807 45.297 126.212 48.159 130.8H48.113Z" fill="#FF438B"/>
    <path d="M48.25 3.65663C34.8722 3.65663 27.1046 31.7744 25.3103 52.4198C24.5381 61.3911 23.4252 77.5396 22.0625 84.9437C21.2676 89.3499 18.5421 96.5724 18.3377 97.1402C6.1412 104.681 3.3022 108.156 4.0063 109.019C4.3242 109.382 8.9802 108.451 14.4085 107.315C18.633 106.43 23.4025 105.566 26.4914 104.022C38.5516 98.026 36.8255 85.4207 38.8923 85.3526C41.254 85.2844 39.8462 89.1455 41.595 93.37C43.934 99.048 50.067 105.407 64.625 103.227C60.582 99.7067 59.719 85.4888 62.263 85.4888C64.171 85.4888 62.581 92.9157 70.485 100.502C77.73 107.474 92.607 109.541 92.72 108.996C93.22 106.248 82.681 100.683 78.048 97.2084C74.846 89.6452 72.506 57.3029 71.961 52.3062C69.418 28.9808 62.104 3.63391 48.272 3.63391L48.25 3.65663Z" fill="#E8E8E8"/>
    <path d="M48.25 3.65667C62.082 3.65667 69.418 29.0035 71.939 52.329C72.484 57.303 74.823 89.6679 78.026 97.2311C82.659 100.706 93.175 106.248 92.698 109.019C92.698 109.064 92.539 109.11 92.243 109.11C89.677 109.11 77.003 106.793 70.485 100.524C62.581 92.9158 64.171 85.5116 62.263 85.5116C59.719 85.5116 60.583 99.7295 64.625 103.25C62.627 103.545 60.787 103.681 59.084 103.681C48.454 103.681 43.616 98.2759 41.595 93.37C39.8689 89.1683 41.209 85.3526 38.9377 85.3526C38.9377 85.3526 38.8923 85.3526 38.8696 85.3526C36.8028 85.4207 38.5289 98.026 26.4687 104.022C23.3799 105.567 18.633 106.407 14.3858 107.315C9.79792 108.292 5.73242 109.11 4.41512 109.11C4.18802 109.11 4.02902 109.087 3.98362 109.019C3.27952 108.178 6.11862 104.681 18.315 97.1403C18.5422 96.5497 21.2449 89.35 22.0398 84.9438C23.3799 77.5396 24.4928 61.4139 25.2877 52.4199C27.1274 31.7517 34.8723 3.65667 48.25 3.65667ZM48.25 0C30.8522 0 23.3572 32.7511 21.6764 52.1019C21.5175 54.0097 21.3358 56.2128 21.1314 58.5976C20.4046 67.5008 19.4961 78.6071 18.474 84.2624C17.9289 87.2604 16.2709 92.1209 15.3397 94.6646C1.00832 103.659 0.554116 106.452 0.304216 107.974C0.099816 109.2 0.417815 110.404 1.19002 111.335C1.96222 112.267 3.05242 112.744 4.43792 112.744C5.82332 112.744 8.45791 112.289 15.158 110.858L16.7479 110.518C20.7907 109.677 24.9924 108.814 28.104 107.247C33.9638 104.34 37.0753 100.047 38.8696 96.1636C41.232 100.865 46.751 107.293 59.084 107.293C60.991 107.293 63.035 107.134 65.148 106.816L71.416 105.884C79.093 110.949 89.631 112.721 92.243 112.721C95.65 112.721 96.241 109.927 96.309 109.609C97.081 105.249 92.039 102.001 85.044 97.4809C83.59 96.5498 82.205 95.664 81.092 94.869C78.798 87.8282 76.799 65.2523 76.027 56.5081C75.845 54.3731 75.686 52.7378 75.595 51.8975C73.892 36.3169 67.828 0 48.25 0Z" fill="#20223A"/>
    <path d="M39.7097 48.5815C42.281 48.5815 44.366 44.9513 44.366 40.4732C44.366 35.9951 42.281 32.365 39.7097 32.365C37.1383 32.365 35.0537 35.9951 35.0537 40.4732C35.0537 44.9513 37.1383 48.5815 39.7097 48.5815Z" fill="#20223A"/>
    <path d="M56.925 48.5815C59.497 48.5815 61.581 44.9513 61.581 40.4732C61.581 35.9951 59.497 32.3649 56.925 32.3649C54.354 32.3649 52.269 35.9951 52.269 40.4732C52.269 44.9513 54.354 48.5815 56.925 48.5815Z" fill="#20223A"/>
    <path opacity="0.2" d="M41.618 84.5804C40.8227 88.1916 40.5501 91.0534 42.367 94.9372C43.934 97.8443 46.614 100.706 50.975 102.319C44.366 95.7321 43.707 92.0527 41.64 84.5804H41.618Z" fill="#2E3048"/>
    <path opacity="0.2" d="M27.5588 103.409C28.649 99.7066 29.83 92.3933 29.671 88.4641C29.4666 89.8722 25.4693 98.0713 25.4693 98.0713C25.4693 98.0713 21.1312 103 15.3169 107.088C19.3142 106.248 23.6069 105.407 26.4686 103.999C26.8547 103.818 27.2181 103.613 27.5588 103.409Z" fill="#2E3048"/>
    <path opacity="0.2" d="M63.467 83.0585C63.467 85.8294 63.785 91.1895 66.351 95.3686C67.328 97.0039 68.645 98.7527 70.462 100.502C75.845 105.68 85.452 108.156 90.063 108.86C73.596 100.706 68.395 93.8469 63.467 83.0585Z" fill="#2E3048"/>
    <path d="M48.613 56.8487C49.679 56.8487 50.543 55.7505 50.543 54.3958C50.543 53.0411 49.679 51.9429 48.613 51.9429C47.547 51.9429 46.682 53.0411 46.682 54.3958C46.682 55.7505 47.547 56.8487 48.613 56.8487Z" fill="#20223A"/>
    <path d="M61.764 13.8642C58.198 7.52733 53.724 3.50717 48.204 3.50717C43.071 3.50717 33.514 9.11715 27.8358 36.3724C34.6496 23.8804 40.3278 9.11715 48.568 10.0939C53.247 10.0939 57.653 11.4339 61.741 13.8415L61.764 13.8642Z" fill="#C3C3C8"/>
</svg>
